# xmcd
#
# Track frame offsets:
# 150
# 15541
# 33548
# 50688
# 67000
# 83069
# 94747
# 106947
# 122860
# 138657
# 164002
#
# Disc length: 2415 seconds
#
# Revision: 0
# Processed by: cddbd v1.5.2PL0 Copyright (c) Steve Scherf et al.
# Submitted via: Audion 3.0.2 (http://www.panic.com/audion/)
#
DISCID=99096d0b
DTITLE=Lisa Lim - Crazy Feelin' This Way
DYEAR=1900
DGENRE=
TTITLE0=My 442
TTITLE1=Bad Dog Blue's
TTITLE2=Rock N'Roll (Delta Vamp)
TTITLE3=Crazy Feelin' This Way
TTITLE4=Same Old Grind
TTITLE5=Lim Slid Lingo
TTITLE6=Writing On The Wall
TTITLE7=You Got Me
TTITLE8=Fever
TTITLE9=Just For the Moment
TTITLE10=Honestly I Insist
EXTD=
EXTT0=
EXTT1=
EXTT2=
EXTT3=
EXTT4=
EXTT5=
EXTT6=
EXTT7=
EXTT8=
EXTT9=
EXTT10=
PLAYORDER=
